<?xml version="1.0" encoding="utf-8" ?>
<svg baseProfile="tiny" height="100%" version="1.2" width="100%" xmlns="http://www.w3.org/2000/svg" xmlns:ev="http://www.w3.org/2001/xml-events" xmlns:xlink="http://www.w3.org/1999/xlink"><defs /><polygon fill="black" points="0.0,47.0 0.0,0.0 19.0,0.0 19.0,14.0 40.0,14.0 40.0,21.5 30.0,21.5 28.5,23.5 28.5,47.0" /><polygon fill="red" points="0.0,47.0 28.5,47.0 28.5,32.4 21.5,32.4 21.5,31.08 19.0,31.08 19.0,37.38 12.5,37.38 12.5,33.18 8.29,33.18 8.29,37.38 0.0,37.38" /><polygon fill="green" points="9.79,33.18 9.79,14.0 14.5,14.0 14.5,16.0 12.5,16.0 12.5,33.18" /><polygon fill="yellow" points="12.5,23.5 12.5,16.0 14.5,16.0 14.5,14.0 24.5,14.0 24.5,16.0 28.5,16.0 28.5,21.5 24.5,21.5 24.5,23.5 21.5,23.5 21.5,31.08 19.0,31.08 19.0,23.5" /><polygon fill="purple" points="24.5,14.0 40.0,14.0 40.0,21.5 30.0,21.5 28.5,23.5 24.5,23.5 24.5,21.5 28.5,21.5 28.5,16.0 24.5,16.0" /></svg>